<?xml version="1.0" encoding="utf-8"?>
<!-- Generator: Adobe Illustrator 23.0.5, SVG Export Plug-In . SVG Version: 6.00 Build 0)  -->
<svg version="1.1" id="Layer_1" xmlns="http://www.w3.org/2000/svg" xmlns:xlink="http://www.w3.org/1999/xlink" x="0px" y="0px"
	 viewBox="0 0 81.7 86.2" style="enable-background:new 0 0 81.7 86.2;" xml:space="preserve">
<style type="text/css">
	.st0{fill:#E19D25;}
</style>
<g>
	<path class="st0" d="M70.4,48.7c1.3,0.5,2.3,1.5,3,2.9s1.2,2.9,1.4,4.7c0.2,1.8,0.1,3.6-0.4,5.6c-0.5,1.9-1.2,3.8-2.3,5.6
		c-1.1,1.8-2.6,3.4-4.4,4.8c-1.8,1.4-4,2.4-6.6,3c-3.9,0.9-7.3,1-10.3,0.2c-3-0.8-5.6-2.2-7.6-4.3c-2.1-2.1-3.6-4.7-4.6-7.8
		c-1-3.2-1.4-6.7-1.2-10.6c0.1-2.6,0.4-5.1,0.9-7.5c0.5-2.4,1-4.5,1.6-6.4c0.6-1.9,1.2-3.6,1.8-5c0.6-1.4,1.1-2.6,1.5-3.4
		c-2.8-0.2-5.4-0.7-7.7-1.5c-2.3-0.8-4.3-1.7-6.1-2.8c-1.8-1.1-3.4-2.3-4.7-3.6c-1.4-1.3-2.5-2.6-3.4-3.8c-0.9-1.3-1.7-2.4-2.2-3.4
		c-0.5-1-0.9-1.8-1.1-2.5c-0.1-0.3-0.2-0.7-0.3-1.3c-0.1-0.5-0.1-0.9-0.1-1.2c0-0.8,0.2-1.5,0.6-2c0.3-0.6,0.7-1,1.2-1.4
		c0.5-0.4,1-0.7,1.6-0.9c0.6-0.2,1.1-0.4,1.7-0.5c0.4-0.1,0.7,0,1,0.3c0.3,0.3,0.4,0.6,0.3,1c-0.2,1-0.1,2.3,0.3,3.8
		c0.5,1.6,1.2,3.2,2.3,4.9c1.1,1.7,2.5,3.3,4.2,5c1.7,1.6,3.7,3,6,4.1c2.5,1.3,5.4,2,8.4,2.3c0.5-0.8,1-1.7,1.8-2.9
		c0.7-1.1,1.5-2.3,2.5-3.5c0.9-1.2,1.9-2.4,3-3.5c1.1-1.1,2.3-2.1,3.6-3c1.7-1.1,3.3-2,4.7-2.4c1.4-0.5,2.6-0.7,3.7-0.6
		c1.1,0,2,0.3,2.7,0.8c0.7,0.5,1.2,1.2,1.6,2c0.4,1.1,0.5,2.2,0.3,3.4c-0.2,1.1-0.6,2.2-1.2,3.3c-0.6,1.1-1.4,2.1-2.4,3
		c-1,0.9-2,1.8-3.2,2.5c-1.6,0.9-3,1.7-4.4,2.2s-2.7,1-3.9,1.3c-1.2,0.3-2.2,0.6-3.1,0.7c-0.9,0.1-1.6,0.2-2.1,0.2
		c-0.9,1.9-1.6,3.9-2.2,5.9c-0.6,2-1.1,3.9-1.5,5.8c-0.4,1.9-0.7,3.7-1,5.4c-0.2,1.7-0.4,3.3-0.4,4.7c0,1.3-0.1,2.7-0.1,4.2
		c0,1.5,0.1,3.1,0.3,4.6c0.2,1.5,0.6,3,1.2,4.5c0.6,1.5,1.3,2.8,2.4,3.9c1,1.1,2.3,2.1,3.9,2.8c1.6,0.7,3.5,1,5.9,1
		c2.1-0.1,4-0.6,5.8-1.5c0.7-0.4,1.5-0.8,2.3-1.4c0.8-0.6,1.5-1.2,2.2-2.1c0.7-0.8,1.3-1.8,1.8-2.9c0.5-1.1,0.9-2.4,1.2-3.8
		c0.4-2.3,0.3-4-0.2-5.4c-0.5-1.3-1.3-2.2-2.2-2.7c-1-0.5-2-0.7-3.2-0.6s-2.2,0.5-3,1.1c-0.5,0.3-0.9,0.4-1.3,0.1
		c-0.4-0.3-0.6-0.7-0.5-1.2c0.1-0.6,0.4-1.3,0.8-1.9c0.4-0.7,1-1.3,1.9-1.8c0.9-0.7,1.9-1,2.8-1.2c0.9-0.1,1.8-0.1,2.5-0.1
		C68.8,48.1,69.6,48.3,70.4,48.7z M56.7,17.9c-1.3,1.2-2.4,2.6-3.5,4.1c-1.1,1.5-2,3.1-2.9,4.7c2.7-0.2,5.4-0.9,8-2
		c1.2-0.5,2.3-1.1,3.4-1.8c1.1-0.7,2-1.5,2.7-2.3c0.8-0.8,1.3-1.7,1.6-2.7c0.3-1,0.3-2,0.1-3.1c-0.5-0.7-1.2-1-2-1.1
		c-0.7-0.1-1.7,0.2-2.9,0.7C60,15,58.5,16.2,56.7,17.9z"/>
</g>
<g>
	<path class="st0" d="M39.8,59.5c0.4,0.4,0.5,0.8,0.4,1.2c-0.1,0.3-0.2,0.8-0.3,1.3c-0.1,0.5-0.3,1.1-0.6,1.8
		c-0.2,0.7-0.5,1.4-0.8,2.1c-0.3,0.7-0.6,1.5-1,2.2c-1.1,2.4-2.4,4.5-3.7,6.3c-0.6,0.8-1.2,1.5-1.8,2.2c-0.6,0.7-1.3,1.3-2,1.8
		c-0.7,0.5-1.4,0.9-2.1,1.2s-1.4,0.3-2.1,0.2c-1.2-0.2-2.1-0.9-2.6-2.1c-0.6-1.2-1-2.5-1.1-3.9s-0.2-2.9-0.2-4.4s0.2-2.6,0.3-3.4
		c0.3-1.8,0.7-3.5,1.2-5.2c0.5-1.7,0.9-3.2,1.3-4.6c0.4-1.4,0.7-2.5,0.9-3.4c0.2-0.9,0.1-1.5-0.2-1.8c-0.2-0.2-0.5-0.2-0.8-0.1
		c-0.3,0.1-0.6,0.3-1,0.5c-0.4,0.2-0.7,0.6-1,1c-0.9,1-1.7,2.2-2.5,3.7c-0.8,1.4-1.5,2.9-2.2,4.3c-0.6,1.5-1.2,2.9-1.7,4.2
		c-0.5,1.4-0.9,2.5-1.2,3.4c0,0.1-0.1,0.2-0.2,0.4c-0.1,0.2-0.3,0.4-0.5,0.6s-0.5,0.4-0.8,0.5S12.8,70,12.3,70
		c-0.8,0-1.4-0.2-1.9-0.5c-0.4-0.3-0.7-0.6-1-0.9c-0.7-1.1-1.1-2.5-1.1-4.1c0-1.6,0.1-3.3,0.4-4.9c0.3-1.6,0.6-3.1,1-4.6
		s0.7-2.5,1-3.2c0.1-0.5,0.5-0.7,1.2-0.8c0.6,0,1.3,0,2.1,0.1c0.8,0.1,1.6,0.3,2.2,0.6c0.7,0.4,0.9,0.9,0.7,1.6
		c-0.2,0.5-0.4,1-0.6,1.8c-0.2,0.7-0.5,1.6-0.7,2.5c-0.2,0.9-0.5,1.9-0.7,2.9c-0.2,1-0.4,2.1-0.5,3.1c0.5-1.4,1.1-3,1.9-4.8
		c0.8-1.8,1.7-3.5,2.7-5.2c1-1.6,2.2-3,3.4-4.1c1.2-1.1,2.5-1.6,3.9-1.6c1.2,0,2.1,0.3,2.8,0.8c0.7,0.5,1.2,1.2,1.5,1.9
		c0.3,0.8,0.5,1.7,0.5,2.6c0,1,0,1.9-0.1,2.9s-0.3,1.9-0.5,2.8c-0.2,0.9-0.4,1.7-0.5,2.3c-0.8,2.6-1.5,5-1.9,7.1
		c-0.2,0.9-0.4,1.8-0.6,2.7c-0.2,0.9-0.3,1.7-0.3,2.4c-0.1,0.7-0.1,1.4,0,1.9c0.1,0.5,0.2,0.8,0.5,1c0.4,0.2,0.9,0.1,1.5-0.5
		c0.6-0.5,1.3-1.3,2.1-2.3c0.8-1,1.6-2.2,2.4-3.5c0.8-1.3,1.6-2.7,2.3-4.1c0.6-1.1,1.2-2.4,1.7-3.7s0.8-2.3,1-2.9
		c0.2-0.4,0.4-0.5,0.7-0.2C39.6,59.4,39.7,59.4,39.8,59.5z"/>
</g>
</svg>
